<?xml version="1.0" standalone="no"?>
<!DOCTYPE svg PUBLIC "-//W3C//DTD SVG 20010904//EN"
 "http://www.w3.org/TR/2001/REC-SVG-20010904/DTD/svg10.dtd">
<svg version="1.0" xmlns="http://www.w3.org/2000/svg"
 width="3937.000000pt" height="3937.000000pt" viewBox="0 0 3937.000000 3937.000000"
 preserveAspectRatio="xMidYMid meet">

<g transform="translate(0.000000,3937.000000) scale(0.100000,-0.100000)"
fill="#000000" stroke="none">
<path d="M1040 19685 l0 -18645 18645 0 18645 0 0 18645 0 18645 -18645 0
-18645 0 0 -18645z m36910 0 l0 -18265 -18265 0 -18265 0 0 18265 0 18265
18265 0 18265 0 0 -18265z"/>
<path d="M10420 33239 c-751 -423 -1366 -773 -1368 -777 -2 -7 10604 -8030
10628 -8040 7 -3 10633 8025 10638 8036 3 9 -2719 1542 -2737 1542 -6 0 -1779
-1227 -3939 -2727 -2160 -1500 -3937 -2729 -3950 -2731 -15 -3 -41 8 -75 30
-29 19 -1800 1248 -3936 2732 -2136 1483 -3887 2698 -3890 2700 -3 2 -620
-343 -1371 -765z"/>
<path d="M9024 32294 c3 -11 447 -2129 986 -4709 l980 -4690 33 -31 c17 -18
1155 -1048 2527 -2289 1509 -1366 2496 -2252 2498 -2243 2 8 -4 106 -12 218
-14 202 -15 203 -43 230 -15 15 -1062 946 -2326 2069 -1264 1123 -2302 2052
-2307 2064 -16 37 -1561 8029 -1558 8056 2 15 14 31 31 41 25 14 30 13 56 -1
16 -9 2209 -1700 4875 -3758 2665 -2057 4848 -3741 4851 -3741 3 0 5 179 5
399 l0 398 -5291 3999 c-2911 2199 -5296 4001 -5301 4003 -6 2 -8 -5 -4 -15z"/>
<path d="M25075 28334 c-2893 -2186 -5275 -3987 -5293 -4002 l-33 -27 3 -398
3 -399 4860 3752 c2673 2064 4866 3755 4874 3758 23 9 65 -12 74 -38 11 -32
-1546 -8068 -1567 -8089 -8 -7 -1058 -941 -2333 -2075 l-2318 -2061 -12 -175
c-7 -96 -12 -194 -10 -218 l2 -42 2525 2285 2525 2285 982 4693 c540 2580 981
4700 980 4709 -1 11 -1596 -1188 -5262 -3958z"/>
<path d="M9960 30788 c0 -21 1491 -7712 1498 -7729 6 -12 153 85 712 468 388
266 711 487 718 491 10 7 -55 521 -318 2498 -181 1369 -332 2499 -335 2510 -3
14 -370 303 -1047 826 -574 443 -1085 838 -1135 877 -51 39 -93 66 -93 59z"/>
<path d="M28285 29934 c-616 -476 -1127 -872 -1137 -882 -13 -14 -82 -512
-348 -2511 -182 -1372 -330 -2500 -328 -2507 3 -13 1413 -984 1429 -984 4 0 9
10 12 23 16 63 1497 7720 1495 7722 -2 2 -507 -386 -1123 -861z"/>
<path d="M12237 23419 c-584 -399 -716 -494 -705 -504 18 -16 4518 -4014 4539
-4032 15 -12 98 49 740 543 398 306 730 562 737 569 12 10 -398 363 -2278
1961 -1260 1072 -2297 1950 -2303 1952 -7 1 -335 -219 -730 -489z"/>
<path d="M24103 21963 c-1260 -1072 -2291 -1952 -2289 -1957 1 -6 332 -264
735 -574 l733 -564 26 24 c15 14 1041 926 2280 2027 1238 1100 2252 2004 2252
2009 -1 9 -1414 976 -1432 980 -7 1 -1044 -874 -2305 -1945z"/>
<path d="M16911 19345 c-410 -316 -749 -579 -754 -584 -9 -9 18 -459 28 -469
2 -3 10 0 17 5 7 6 405 309 883 673 479 364 875 668 882 674 9 8 -26 43 -143
141 -84 71 -157 131 -161 132 -5 1 -343 -257 -752 -572z"/>
<path d="M21546 19788 c-146 -124 -155 -134 -138 -149 30 -28 1755 -1341 1769
-1346 9 -4 13 4 13 23 0 16 7 121 15 234 12 164 13 206 3 216 -18 16 -1481
1139 -1494 1147 -7 4 -79 -50 -168 -125z"/>
<path d="M24110 16924 c-443 -39 -763 -135 -1059 -319 -324 -201 -616 -535
-787 -900 -199 -427 -248 -984 -129 -1457 116 -457 408 -829 847 -1080 87 -50
280 -119 1320 -478 559 -194 649 -228 778 -297 308 -165 515 -369 645 -637
146 -300 184 -682 103 -1055 -63 -295 -226 -582 -455 -801 -276 -265 -610
-393 -1059 -407 -585 -18 -1017 153 -1327 525 -222 267 -338 565 -369 950
l-12 152 -389 0 -390 0 6 -157 c18 -466 169 -900 438 -1255 82 -108 271 -301
384 -393 347 -280 744 -447 1230 -517 122 -18 638 -18 760 0 473 68 852 227
1177 493 184 151 393 396 521 611 233 391 339 853 308 1336 -36 561 -217 994
-558 1336 -180 181 -339 293 -602 424 -294 147 -573 249 -1091 401 -887 259
-1230 454 -1415 804 -87 165 -125 342 -125 582 0 230 33 421 105 605 93 241
248 458 425 592 371 282 1089 316 1570 73 236 -119 440 -327 565 -575 80 -159
137 -376 151 -577 l7 -103 388 0 389 0 0 98 c0 373 -129 797 -337 1112 -337
510 -822 809 -1453 896 -102 14 -470 26 -560 18z"/>
<path d="M4720 12850 l0 -3940 393 2 392 3 5 3487 5 3486 1491 -3486 1491
-3487 325 -3 c253 -2 327 1 335 10 5 7 680 1580 1499 3496 l1489 3483 3 -3496
2 -3495 393 2 392 3 3 3938 2 3937 -609 0 -609 0 -42 -97 c-584 -1360 -2844
-6590 -2849 -6595 -4 -4 -657 1499 -1452 3340 l-1445 3347 -607 3 -607 2 0
-3940z"/>
<path d="M15535 12869 c-929 -2157 -1691 -3930 -1693 -3940 -3 -19 9 -19 418
-17 l422 3 567 1315 567 1315 1835 3 1834 2 570 -1320 569 -1320 424 0 c399 0
423 1 418 18 -3 9 -762 1781 -1686 3937 l-1679 3920 -438 2 -438 3 -1690
-3921z m2884 1202 c413 -987 750 -1796 748 -1797 -2 -2 -686 -3 -1519 -2
l-1516 3 754 1775 c860 2025 774 1824 778 1819 2 -2 342 -811 755 -1798z"/>
<path d="M28710 12859 c-932 -2162 -1696 -3935 -1698 -3940 -2 -5 168 -9 421
-9 l424 0 140 323 c77 177 333 771 569 1319 l429 997 1835 0 1835 0 399 -927
c220 -510 476 -1104 569 -1319 l170 -393 424 0 c336 0 424 3 420 13 -2 6 -762
1779 -1687 3940 l-1683 3927 -436 0 -437 0 -1694 -3931z m2890 1206 c408 -973
744 -1776 747 -1782 4 -10 -303 -13 -1517 -13 -1214 0 -1521 3 -1517 13 66
159 1519 3573 1524 3580 4 6 9 3 14 -9 4 -10 341 -815 749 -1789z"/>
<path d="M5405 7919 c-381 -51 -711 -262 -913 -582 -178 -284 -229 -664 -136
-1016 98 -375 412 -700 799 -829 145 -48 260 -65 435 -65 170 0 283 15 421 59
83 26 241 99 288 134 25 17 25 17 90 -37 111 -92 234 -141 399 -158 l62 -6 0
109 0 108 -70 11 c-81 13 -180 56 -233 103 l-37 32 50 55 c144 158 246 357
295 578 24 109 30 370 11 487 -42 255 -147 464 -323 643 -183 185 -397 301
-651 355 -113 24 -375 34 -487 19z m475 -239 c191 -50 331 -131 471 -269 136
-136 215 -273 261 -458 33 -128 33 -398 0 -526 -41 -163 -126 -325 -234 -450
l-33 -37 -85 76 c-169 150 -415 293 -625 363 -156 52 -274 72 -460 78 -194 6
-289 -3 -463 -47 -65 -17 -120 -30 -123 -30 -12 0 -30 117 -36 230 -11 219 42
442 144 614 60 100 212 257 310 320 126 81 262 132 409 156 105 16 367 5 464
-20z m-490 -1465 c249 -55 513 -192 715 -371 l58 -51 -45 -27 c-119 -69 -276
-112 -453 -122 -389 -23 -737 142 -944 445 -28 41 -51 78 -51 81 0 7 127 43
210 60 73 15 423 5 510 -15z"/>
<path d="M21455 7919 c-292 -40 -535 -159 -735 -359 -173 -172 -280 -371 -331
-611 -17 -82 -22 -139 -23 -269 -1 -183 11 -266 56 -410 135 -424 509 -743
968 -826 132 -24 383 -23 510 1 308 58 567 212 759 450 203 252 298 589 262
930 -30 286 -133 513 -322 710 -185 192 -397 310 -656 365 -114 24 -377 35
-488 19z m372 -220 c99 -13 266 -68 350 -116 132 -73 260 -191 346 -317 184
-272 216 -686 77 -1019 -83 -201 -258 -387 -460 -491 -331 -171 -773 -150
-1083 50 -87 56 -213 176 -273 261 -169 235 -225 584 -143 899 65 255 266 503
508 628 96 49 225 92 316 105 87 12 272 13 362 0z"/>
<path d="M30138 7919 c-164 -19 -360 -83 -493 -161 -309 -181 -517 -466 -591
-810 -26 -118 -26 -409 0 -528 52 -241 154 -435 320 -608 192 -200 423 -321
701 -368 135 -23 389 -23 512 -1 457 83 808 383 954 815 25 74 43 152 65 290
l5 32 -821 0 -820 0 0 -110 0 -110 674 0 675 0 -19 -56 c-57 -164 -175 -331
-313 -440 -352 -278 -874 -297 -1246 -44 -209 141 -384 389 -443 625 -31 128
-32 351 0 478 47 189 143 359 282 497 185 185 404 275 696 287 219 9 380 -23
545 -108 127 -66 267 -196 332 -309 l22 -40 143 0 c78 0 142 3 142 8 0 17 -94
171 -147 240 -244 318 -686 477 -1175 421z"/>
<path d="M34215 7924 c-261 -42 -450 -198 -530 -439 -52 -154 -43 -338 23
-479 35 -75 121 -170 195 -214 30 -18 187 -79 349 -136 161 -56 316 -115 343
-131 167 -97 246 -268 217 -468 -30 -204 -174 -361 -369 -402 -190 -41 -378 9
-492 130 -78 82 -131 207 -131 307 l0 48 -124 0 -123 0 4 -52 c14 -187 76
-322 202 -448 168 -168 389 -240 643 -210 187 21 309 79 433 204 145 146 214
330 202 541 -10 177 -71 320 -183 426 -99 95 -217 153 -474 232 -277 86 -357
124 -425 199 -50 56 -74 116 -82 208 -16 187 94 388 243 443 64 25 206 33 286
17 176 -34 303 -168 332 -352 l10 -68 118 0 118 0 0 35 c0 20 -7 70 -16 112
-49 236 -215 415 -446 479 -53 15 -267 26 -323 18z"/>
<path d="M7273 7028 l3 -863 26 -107 c49 -199 125 -338 244 -447 261 -239 782
-252 1073 -28 163 126 272 358 300 641 7 69 11 396 11 888 l0 778 -120 0 -120
0 0 -770 c0 -792 -4 -894 -41 -1037 -76 -300 -288 -457 -589 -439 -253 15
-411 131 -493 361 -55 155 -57 196 -57 1078 l0 807 -120 0 -121 0 4 -862z"/>
<path d="M10177 7878 c-3 -7 -233 -542 -512 -1188 -279 -646 -511 -1185 -516
-1198 l-9 -23 131 3 131 3 172 400 173 400 564 2 564 3 174 -405 174 -405 129
0 c70 0 128 3 128 6 0 3 -232 548 -516 1210 l-516 1204 -133 0 c-97 0 -134 -3
-138 -12z m372 -830 l228 -543 -460 -3 c-253 -1 -462 0 -465 2 -2 3 95 238
216 523 253 594 244 574 250 569 2 -3 106 -249 231 -548z"/>
<path d="M11770 6680 l0 -1210 620 0 620 0 0 105 0 105 -500 0 -500 0 0 1105
0 1105 -120 0 -120 0 0 -1210z"/>
<path d="M13290 6680 l0 -1210 120 0 120 0 0 1210 0 1210 -120 0 -120 0 0
-1210z"/>
<path d="M13800 7780 l0 -110 275 0 275 0 0 -1100 0 -1100 120 0 120 0 0 1100
0 1100 280 0 280 0 0 110 0 110 -675 0 -675 0 0 -110z"/>
<path d="M15284 7708 c52 -101 239 -464 415 -807 l321 -624 0 -404 0 -403 120
0 120 0 0 403 0 402 306 595 c168 327 355 691 415 808 l110 212 -133 0 -133 0
-339 -675 c-187 -371 -342 -675 -345 -675 -3 0 -159 304 -346 675 l-340 674
-133 1 -133 0 95 -182z"/>
<path d="M18880 6680 l0 -1210 120 0 120 0 0 550 0 550 475 0 475 0 0 110 0
110 -475 0 -475 0 0 440 0 440 495 0 496 0 -3 108 -3 107 -612 3 -613 2 0
-1210z"/>
<path d="M23310 6681 l0 -1211 120 0 120 0 0 1100 0 1100 263 0 c357 0 467
-15 615 -85 179 -84 281 -254 282 -466 0 -253 -132 -435 -375 -512 -89 -28
-177 -40 -357 -46 l-177 -6 407 -542 407 -543 147 0 c82 0 148 2 148 3 0 2
-151 204 -335 448 l-335 444 70 7 c174 18 314 82 425 193 158 157 224 336 212
580 -11 221 -67 357 -206 495 -94 93 -171 140 -301 184 -159 53 -221 58 -692
63 l-438 5 0 -1211z"/>
<path d="M27373 7213 c-161 -373 -396 -918 -522 -1211 l-230 -533 132 3 131 3
96 221 c52 121 130 302 174 402 l78 182 563 0 562 0 174 -405 174 -405 131 0
132 0 -518 1208 -517 1207 -134 3 -134 3 -292 -678z m657 -158 c122 -291 224
-536 227 -542 4 -10 -92 -13 -462 -13 -370 0 -466 3 -462 13 61 157 463 1085
468 1079 4 -4 107 -245 229 -537z"/>
<path d="M31990 6680 l0 -1210 665 0 665 0 0 105 0 105 -545 0 -545 0 2 448 3
447 523 3 522 2 0 105 0 105 -525 0 -525 0 0 440 0 440 545 0 545 0 0 110 0
110 -665 0 -665 0 0 -1210z"/>
<path d="M17867 4419 c-79 -27 -124 -57 -180 -119 -70 -78 -104 -161 -122
-302 l-6 -48 74 0 74 0 6 59 c15 142 93 251 206 289 47 17 158 15 218 -3 64
-19 135 -81 171 -149 24 -45 27 -62 27 -146 0 -141 -13 -161 -264 -410 -113
-113 -277 -275 -363 -359 l-158 -152 0 -65 0 -64 465 0 465 0 0 65 0 65 -361
0 c-198 0 -359 4 -357 8 2 5 113 113 248 241 330 312 384 370 426 456 82 167
65 371 -42 502 -48 59 -125 109 -203 133 -88 28 -243 27 -324 -1z"/>
<path d="M18971 4424 c-158 -42 -255 -148 -308 -334 -16 -57 -18 -105 -18
-405 0 -299 2 -348 18 -405 68 -239 216 -350 467 -350 268 0 427 130 476 390
23 123 16 710 -10 790 -56 173 -157 275 -311 316 -65 18 -245 17 -314 -2z
m322 -147 c110 -54 160 -153 178 -350 13 -143 6 -506 -11 -587 -19 -84 -55
-153 -109 -203 -58 -54 -124 -77 -222 -77 -174 0 -286 96 -325 279 -19 93 -19
599 0 692 20 91 56 159 112 208 63 55 117 71 229 68 76 -2 99 -6 148 -30z"/>
<path d="M20063 4419 c-106 -33 -200 -119 -250 -226 -24 -53 -53 -167 -53
-215 l0 -28 74 0 73 0 6 67 c13 132 92 243 200 279 68 23 196 16 254 -14 102
-53 161 -142 170 -255 7 -85 -15 -159 -70 -234 -24 -32 -195 -205 -380 -383
l-336 -325 -1 -67 0 -68 465 0 465 0 0 65 0 65 -361 0 c-226 0 -359 4 -357 10
2 5 75 78 163 161 278 264 455 443 485 489 103 160 99 379 -8 534 -39 57 -133
122 -209 146 -88 27 -243 27 -330 -1z"/>
<path d="M21169 4426 c-151 -42 -257 -155 -306 -327 -16 -56 -18 -105 -18
-414 0 -309 2 -358 18 -414 66 -231 216 -341 465 -341 100 0 190 18 256 52 58
30 138 115 169 180 59 124 62 152 62 523 0 295 -2 349 -18 405 -49 180 -141
282 -298 331 -72 22 -256 25 -330 5z m282 -132 c80 -23 159 -107 190 -200 22
-64 23 -89 27 -368 2 -194 -1 -322 -8 -366 -33 -193 -150 -300 -329 -300 -173
0 -286 91 -326 264 -14 58 -16 123 -13 390 3 301 5 325 25 379 24 65 66 126
108 159 70 55 217 74 326 42z"/>
</g>
</svg>
